<?xml version="1.0" encoding="UTF-8"?>
<svg version="1.1" xmlns="http://www.w3.org/2000/svg" width="512" height="512">
<path d="M0 0 C8.56676942 6.55417444 15.41433646 13.7059904 20.15625 23.45703125 C20.4997197 24.15472626 20.84318939 24.85242126 21.19706726 25.57125854 C24.98283523 33.3569859 28.33631878 41.31443724 31.65234375 49.30859375 C32.33759263 50.94897038 33.02323263 52.58918367 33.70922852 54.22924805 C35.9289645 59.54342108 38.1357505 64.86291689 40.33984375 70.18359375 C40.71983521 71.10058044 41.09982666 72.01756714 41.49133301 72.96234131 C46.27664288 84.51288992 51.04588856 96.07003848 55.81065369 107.6290741 C59.84906074 117.42347151 63.90515483 127.21050212 67.96484375 136.99609375 C68.66675257 138.68831193 69.36865687 140.38053197 70.07055664 142.07275391 C72.15998363 147.10983969 74.24986734 152.14673591 76.33984375 157.18359375 C85.31069843 178.8034166 94.27444467 200.42615529 103.21484375 222.05859375 C103.61699097 223.03141296 104.01913818 224.00423218 104.43347168 225.00653076 C108.29386092 234.34707355 112.14989165 243.68910969 115.94921875 253.0546875 C116.21481598 253.70910828 116.48041321 254.36352905 116.75405884 255.03778076 C117.9429824 257.96929951 119.12813261 260.90226811 120.30810547 263.83740234 C120.70271973 264.81402832 121.09733398 265.7906543 121.50390625 266.796875 C121.8385791 267.63001221 122.17325195 268.46314941 122.51806641 269.3215332 C123.19514331 271.15936347 123.19514331 271.15936347 124.33984375 272.18359375 C133.19056246 250.85742918 142.02918564 229.52634334 150.83984375 208.18359375 C158.95617259 188.52366579 167.09591134 168.87353636 175.24707031 149.22802734 C178.42469337 141.56916479 181.60018721 133.90941938 184.77587891 126.24975586 C185.83749407 123.68926091 186.89920037 121.12880376 187.9609375 118.56835938 C191.88877537 109.09603684 195.81560493 99.6232977 199.7407074 90.14984131 C201.51953533 85.85697449 203.29933825 81.56451673 205.08129883 77.27294922 C205.78077765 75.58822276 206.48024061 73.90348971 207.1796875 72.21875 C207.52354996 71.39054749 207.86741241 70.56234497 208.22169495 69.70904541 C210.32114418 64.64906674 212.4106809 59.58511903 214.49273682 54.51795959 C215.84587188 51.22699435 217.20378775 47.93801368 218.56243896 44.64932251 C219.19395583 43.11734784 219.82331484 41.58448142 220.45025635 40.05062866 C228.91683719 19.3419858 238.46223248 3.93634249 258.95703125 -6.45703125 C267.51055967 -9.89424591 275.51155728 -11.35187973 284.71484375 -11.25390625 C285.71999023 -11.24633301 286.72513672 -11.23875977 287.76074219 -11.23095703 C304.46531913 -10.86148221 319.80951586 -3.73863547 331.4296875 8.359375 C342.04803597 20.81198712 347.46572676 35.21532967 347.77734375 51.49609375 C347.79982178 52.22981201 347.8222998 52.96353027 347.84545898 53.71948242 C347.77912855 69.4976222 340.20535347 84.35824956 334.15234375 98.55859375 C333.25096292 100.6940467 332.35067119 102.82995965 331.45141602 104.96630859 C329.62476212 109.30403912 327.7939488 113.63997486 325.95996094 117.97460938 C322.53529001 126.07825843 319.16406083 134.20379498 315.80136108 142.33331299 C314.77068848 144.82468104 313.73867689 147.31549056 312.70629883 149.80615234 C307.00311774 163.56748843 301.3181642 177.33635318 295.63357544 191.1053772 C287.91893103 209.79120401 280.17997325 228.46687641 272.43261719 247.13916016 C269.25518305 254.79756735 266.07986646 262.45685258 262.90435791 270.11605835 C261.13293686 274.38860484 259.36138373 278.66109657 257.58984375 282.93359375 C256.88150978 284.64192682 256.17317645 286.35026015 255.46484375 288.05859375 C254.04817708 291.47526042 252.63151042 294.89192708 251.21484375 298.30859375 C250.86420868 299.15424393 250.51357361 299.9998941 250.15231323 300.87117004 C249.44408416 302.57925012 248.73585256 304.28732914 248.02761841 305.9954071 C246.25516896 310.27010667 244.48276386 314.54482462 242.71044922 318.81958008 C239.54228266 326.4609573 236.37383148 334.10221569 233.20367432 341.74276733 C225.80283524 359.57997126 218.4119277 377.42119874 211.0425415 395.27142334 C209.84665589 398.16709906 208.64979833 401.06237114 207.45263672 403.95751953 C203.88157652 412.59526457 200.3152056 421.23473267 196.77734375 429.88613892 C195.24903411 433.621065 193.71534765 437.35377038 192.1809082 441.08618164 C191.46658227 442.8276408 190.75473351 444.57011862 190.0456543 446.3137207 C181.2487028 467.9401785 172.42899723 486.03286284 150.58984375 496.859375 C141.77689313 500.45022868 134.05828363 501.70866747 124.52734375 501.62109375 C123.3767749 501.61352051 122.22620605 501.60594727 121.04077148 501.59814453 C112.79015143 501.43784744 105.89075962 500.71547375 98.33984375 497.18359375 C97.41945312 496.78269531 96.4990625 496.38179688 95.55078125 495.96875 C66.4787977 481.84222278 57.86896807 445.78404037 46.57443237 418.09344482 C42.71955307 408.65029364 38.81382893 399.22840832 34.90234375 389.80859375 C34.19074021 388.09416313 33.47915172 386.37972626 32.76757812 384.6652832 C31.33899517 381.22367478 29.91006384 377.78221123 28.48095703 374.34082031 C25.28487159 366.6436343 22.09355701 358.94447011 18.90188599 351.24545288 C17.12873874 346.96826568 15.35540763 342.69115471 13.58203125 338.4140625 C13.23098831 337.56739517 12.87994537 336.72072784 12.51826477 335.84840393 C10.41401633 330.77348738 8.30911356 325.6988428 6.20367432 320.62442017 C-2.00319047 300.84456559 -10.19365713 281.05804192 -18.36560059 261.26373291 C-26.08052941 242.57726932 -33.8197596 223.90095498 -41.56738281 205.22802734 C-45.45510467 195.85764994 -49.33987471 186.48604817 -53.22521973 177.11468506 C-54.28945166 174.54780352 -55.35370258 171.98092985 -56.41796875 169.4140625 C-56.76899658 168.56743042 -57.12002441 167.72079834 -57.48168945 166.84851074 C-59.23835284 162.6118876 -60.99533635 158.3753976 -62.75292969 154.13916016 C-63.09717987 153.30942184 -63.44143005 152.47968353 -63.79611206 151.62480164 C-64.49321667 149.9447573 -65.19042163 148.2647546 -65.88772583 146.58479309 C-67.63291255 142.37952907 -69.37576123 138.17332425 -71.11376953 133.96508789 C-74.54967255 125.65075804 -78.00701968 117.34686616 -81.52279663 109.06593323 C-83.27733727 104.92805365 -85.01957477 100.78504751 -86.76055908 96.64144897 C-87.59692327 94.6595546 -88.43882666 92.67998678 -89.2868042 90.70303345 C-98.24683084 69.80281202 -103.4739342 49.9541666 -95.3046875 27.82421875 C-88.02105957 11.69989279 -76.94583198 -0.01750124 -60.5546875 -7.171875 C-40.43312702 -14.6936999 -17.74868343 -12.11914507 0 0 Z " fill="#4FB76A" transform="translate(132.66015625,10.81640625)"/>
<path d="M0 0 C8.56676942 6.55417444 15.41433646 13.7059904 20.15625 23.45703125 C20.4997197 24.15472626 20.84318939 24.85242126 21.19706726 25.57125854 C24.98283523 33.3569859 28.33631878 41.31443724 31.65234375 49.30859375 C32.33759263 50.94897038 33.02323263 52.58918367 33.70922852 54.22924805 C35.9289645 59.54342108 38.1357505 64.86291689 40.33984375 70.18359375 C40.71983521 71.10058044 41.09982666 72.01756714 41.49133301 72.96234131 C46.27664288 84.51288992 51.04588856 96.07003848 55.81065369 107.6290741 C59.84906074 117.42347151 63.90515483 127.21050212 67.96484375 136.99609375 C68.66675257 138.68831193 69.36865687 140.38053197 70.07055664 142.07275391 C72.15998363 147.10983969 74.24986734 152.14673591 76.33984375 157.18359375 C85.31069843 178.8034166 94.27444467 200.42615529 103.21484375 222.05859375 C103.61699097 223.03141296 104.01913818 224.00423218 104.43347168 225.00653076 C108.29386092 234.34707355 112.14989165 243.68910969 115.94921875 253.0546875 C116.21481598 253.70910828 116.48041321 254.36352905 116.75405884 255.03778076 C117.9429824 257.96929951 119.12813261 260.90226811 120.30810547 263.83740234 C120.70271973 264.81402832 121.09733398 265.7906543 121.50390625 266.796875 C121.8385791 267.63001221 122.17325195 268.46314941 122.51806641 269.3215332 C123.19514331 271.15936347 123.19514331 271.15936347 124.33984375 272.18359375 C133.19056246 250.85742918 142.02918564 229.52634334 150.83984375 208.18359375 C158.95617259 188.52366579 167.09591134 168.87353636 175.24707031 149.22802734 C178.42469337 141.56916479 181.60018721 133.90941938 184.77587891 126.24975586 C185.83749407 123.68926091 186.89920037 121.12880376 187.9609375 118.56835938 C191.88877537 109.09603684 195.81560493 99.6232977 199.7407074 90.14984131 C201.51953533 85.85697449 203.29933825 81.56451673 205.08129883 77.27294922 C205.78077765 75.58822276 206.48024061 73.90348971 207.1796875 72.21875 C207.52354996 71.39054749 207.86741241 70.56234497 208.22169495 69.70904541 C210.32114418 64.64906674 212.4106809 59.58511903 214.49273682 54.51795959 C215.84587188 51.22699435 217.20378775 47.93801368 218.56243896 44.64932251 C219.19395583 43.11734784 219.82331484 41.58448142 220.45025635 40.05062866 C228.91683719 19.3419858 238.46223248 3.93634249 258.95703125 -6.45703125 C267.51055967 -9.89424591 275.51155728 -11.35187973 284.71484375 -11.25390625 C285.71999023 -11.24633301 286.72513672 -11.23875977 287.76074219 -11.23095703 C304.46531913 -10.86148221 319.80951586 -3.73863547 331.4296875 8.359375 C342.04803597 20.81198712 347.46572676 35.21532967 347.77734375 51.49609375 C347.79982178 52.22981201 347.8222998 52.96353027 347.84545898 53.71948242 C347.77912855 69.4976222 340.20535347 84.35824956 334.15234375 98.55859375 C333.25096292 100.6940467 332.35067119 102.82995965 331.45141602 104.96630859 C329.62476212 109.30403912 327.7939488 113.63997486 325.95996094 117.97460938 C322.53529001 126.07825843 319.16406083 134.20379498 315.80136108 142.33331299 C314.77068848 144.82468104 313.73867689 147.31549056 312.70629883 149.80615234 C307.00311774 163.56748843 301.3181642 177.33635318 295.63357544 191.1053772 C287.91893103 209.79120401 280.17997325 228.46687641 272.43261719 247.13916016 C269.25518305 254.79756735 266.07986646 262.45685258 262.90435791 270.11605835 C261.13293686 274.38860484 259.36138373 278.66109657 257.58984375 282.93359375 C256.88150978 284.64192682 256.17317645 286.35026015 255.46484375 288.05859375 C254.04817708 291.47526042 252.63151042 294.89192708 251.21484375 298.30859375 C250.86420868 299.15424393 250.51357361 299.9998941 250.15231323 300.87117004 C249.44408416 302.57925012 248.73585256 304.28732914 248.02761841 305.9954071 C246.25516896 310.27010667 244.48276386 314.54482462 242.71044922 318.81958008 C239.54228266 326.4609573 236.37383148 334.10221569 233.20367432 341.74276733 C225.80283524 359.57997126 218.4119277 377.42119874 211.0425415 395.27142334 C209.84665589 398.16709906 208.64979833 401.06237114 207.45263672 403.95751953 C203.88157652 412.59526457 200.3152056 421.23473267 196.77734375 429.88613892 C195.24903411 433.621065 193.71534765 437.35377038 192.1809082 441.08618164 C191.46658227 442.8276408 190.75473351 444.57011862 190.0456543 446.3137207 C181.2487028 467.9401785 172.42899723 486.03286284 150.58984375 496.859375 C141.77689313 500.45022868 134.05828363 501.70866747 124.52734375 501.62109375 C123.3767749 501.61352051 122.22620605 501.60594727 121.04077148 501.59814453 C112.79015143 501.43784744 105.89075962 500.71547375 98.33984375 497.18359375 C97.41945312 496.78269531 96.4990625 496.38179688 95.55078125 495.96875 C66.4787977 481.84222278 57.86896807 445.78404037 46.57443237 418.09344482 C42.71955307 408.65029364 38.81382893 399.22840832 34.90234375 389.80859375 C34.19074021 388.09416313 33.47915172 386.37972626 32.76757812 384.6652832 C31.33899517 381.22367478 29.91006384 377.78221123 28.48095703 374.34082031 C25.28487159 366.6436343 22.09355701 358.94447011 18.90188599 351.24545288 C17.12873874 346.96826568 15.35540763 342.69115471 13.58203125 338.4140625 C13.23098831 337.56739517 12.87994537 336.72072784 12.51826477 335.84840393 C10.41401633 330.77348738 8.30911356 325.6988428 6.20367432 320.62442017 C-2.00319047 300.84456559 -10.19365713 281.05804192 -18.36560059 261.26373291 C-26.08052941 242.57726932 -33.8197596 223.90095498 -41.56738281 205.22802734 C-45.45510467 195.85764994 -49.33987471 186.48604817 -53.22521973 177.11468506 C-54.28945166 174.54780352 -55.35370258 171.98092985 -56.41796875 169.4140625 C-56.76899658 168.56743042 -57.12002441 167.72079834 -57.48168945 166.84851074 C-59.23835284 162.6118876 -60.99533635 158.3753976 -62.75292969 154.13916016 C-63.09717987 153.30942184 -63.44143005 152.47968353 -63.79611206 151.62480164 C-64.49321667 149.9447573 -65.19042163 148.2647546 -65.88772583 146.58479309 C-67.63291255 142.37952907 -69.37576123 138.17332425 -71.11376953 133.96508789 C-74.54967255 125.65075804 -78.00701968 117.34686616 -81.52279663 109.06593323 C-83.27733727 104.92805365 -85.01957477 100.78504751 -86.76055908 96.64144897 C-87.59692327 94.6595546 -88.43882666 92.67998678 -89.2868042 90.70303345 C-98.24683084 69.80281202 -103.4739342 49.9541666 -95.3046875 27.82421875 C-88.02105957 11.69989279 -76.94583198 -0.01750124 -60.5546875 -7.171875 C-40.43312702 -14.6936999 -17.74868343 -12.11914507 0 0 Z M-72.72265625 25.93359375 C-80.0545909 35.92996857 -82.03679178 46.96850004 -80.66015625 59.18359375 C-78.95637065 67.26904979 -75.38409878 74.8918103 -72.20678711 82.48071289 C-70.35159985 86.91489647 -68.51801681 91.35797637 -66.68359375 95.80078125 C-66.31804886 96.685914 -65.95250397 97.57104675 -65.57588196 98.48300171 C-64.80057615 100.36051476 -64.02534545 102.23805882 -63.25018311 104.1156311 C-62.0037338 107.13470326 -60.75702374 110.15366762 -59.51025391 113.17260742 C-56.07013894 121.50272364 -52.6304927 129.83303333 -49.19140625 138.16357422 C-38.03817192 165.18017203 -26.86198434 192.1871093 -15.66015625 219.18359375 C-12.86805401 225.91257978 -10.07624391 232.64168682 -7.28515625 239.37109375 C-6.93757263 240.2091153 -6.58998901 241.04713684 -6.23187256 241.91055298 C-0.12511614 256.63559331 5.96212749 271.3686536 12.04528809 286.10345459 C19.76021691 304.78991818 27.4994471 323.46623252 35.24707031 342.13916016 C38.4248823 349.79847807 41.60055339 357.45868365 44.77642822 365.11880493 C45.83636114 367.67519425 46.89643069 370.23152686 47.95654297 372.7878418 C51.91598329 382.33574052 55.87338515 391.88447868 59.8274231 401.43461609 C61.62361229 405.77207571 63.42169925 410.10872978 65.22412109 414.44360352 C65.92157469 416.12124603 66.61900335 417.79889891 67.31640625 419.4765625 C67.65598358 420.29332962 67.99556091 421.11009674 68.34542847 421.95161438 C70.29847406 426.65540814 72.2336427 431.36598391 74.15075684 436.08453369 C75.31089488 438.9362578 76.48020379 441.7841689 77.65100098 444.63153076 C78.18176518 445.92906495 78.70826124 447.22835572 79.2298584 448.52960205 C84.69105578 462.14736197 91.44761098 473.72083196 105.15234375 480.05859375 C111.40911714 482.72367917 116.22844644 483.39448549 122.96484375 483.43359375 C123.82980469 483.45421875 124.69476563 483.47484375 125.5859375 483.49609375 C137.16985072 483.56556249 147.32263225 479.09724904 155.90234375 471.37109375 C159.44160116 467.58237505 161.89467315 463.6362368 164.14453125 459 C164.48689316 458.30388611 164.82925507 457.60777222 165.18199158 456.89056396 C168.75189388 449.51829489 171.86678539 441.9695725 174.92153931 434.37252808 C176.29268537 430.96294401 177.67845924 427.55935661 179.06315613 424.15525818 C179.77903092 422.39509364 180.49421015 420.63464605 181.20869446 418.87391663 C184.63568492 410.43350544 188.13731196 402.02513006 191.65234375 393.62109375 C197.37364801 379.92665549 203.05323861 366.21531547 208.71484375 352.49609375 C214.78703069 337.78312215 220.86635356 323.0731844 226.96484375 308.37109375 C227.48519196 307.11662949 227.48519196 307.11662949 228.01605225 305.83682251 C229.75953205 301.63381075 231.50324717 297.43089666 233.24707031 293.22802734 C236.42450445 285.56962015 239.59982104 277.91033492 242.77532959 270.25112915 C244.54675064 265.97858266 246.31830377 261.70609093 248.08984375 257.43359375 C248.79817772 255.72526068 249.50651105 254.01692735 250.21484375 252.30859375 C251.63151042 248.89192708 253.04817708 245.47526042 254.46484375 242.05859375 C254.81547882 241.21294357 255.16611389 240.3672934 255.52737427 239.49601746 C256.23560334 237.78793738 256.94383494 236.07985836 257.65206909 234.3717804 C259.42451854 230.09708083 261.19692364 225.82236288 262.96923828 221.54760742 C266.13740484 213.9062302 269.30585602 206.26497181 272.47601318 198.62442017 C280.67924525 178.85332102 288.86744892 159.07611177 297.03421021 139.28991699 C301.38372505 128.75208432 305.73801089 118.21629078 310.109375 107.6875 C310.6872023 106.29547867 310.6872023 106.29547867 311.27670288 104.87533569 C313.0945815 100.49640778 314.91354891 96.11793749 316.734375 91.74023438 C318.61120337 87.22477405 320.4789947 82.70566117 322.33984375 78.18359375 C322.63550232 77.46677429 322.93116089 76.74995483 323.23577881 76.01141357 C324.08164169 73.95499351 324.92086577 71.89599997 325.7578125 69.8359375 C326.47167114 68.08591431 326.47167114 68.08591431 327.19995117 66.30053711 C331.30936476 55.06368054 330.27555143 42.9593779 325.33984375 32.18359375 C323.59942756 28.93447358 321.64373102 26.05806992 319.33984375 23.18359375 C318.788125 22.49523438 318.23640625 21.806875 317.66796875 21.09765625 C310.78970564 13.4257474 300.14667465 7.57427279 289.80078125 6.98046875 C274.5341085 6.68698673 262.80859627 10.36885927 251.41015625 20.953125 C245.49860482 27.32198513 242.28533912 35.1267976 239.33984375 43.18359375 C238.34412859 45.89352307 237.34391099 48.60174786 236.33984375 51.30859375 C236.08162842 52.0054126 235.82341309 52.70223145 235.55737305 53.42016602 C233.7629561 58.20470766 231.72000084 62.66950273 229.33984375 67.18359375 C228.32362583 69.51129655 227.32397557 71.84241475 226.33984375 74.18359375 C226.06615967 74.83224396 225.79247559 75.48089417 225.51049805 76.14920044 C224.59716558 78.31726574 223.6868727 80.4865864 222.77734375 82.65625 C222.43396469 83.47509171 222.09058563 84.29393341 221.73680115 85.1375885 C220.6039152 87.8401865 219.47174904 90.54308489 218.33984375 93.24609375 C217.94612579 94.186203 217.55240784 95.12631226 217.14675903 96.09490967 C208.96852381 115.62971968 200.88266996 135.20217976 192.80856323 154.78019714 C188.83192699 164.42003337 184.8368814 174.05220309 180.83984375 183.68359375 C174.82549812 198.17768597 168.8277821 212.67857262 162.83984375 227.18359375 C156.55948742 242.396626 150.26950188 257.60561543 143.96484375 272.80859375 C143.61172119 273.66018066 143.25859863 274.51176758 142.89477539 275.38916016 C142.55244873 276.21464355 142.21012207 277.04012695 141.85742188 277.890625 C141.52566956 278.69079041 141.19391724 279.49095581 140.85211182 280.31536865 C140.21427535 281.85213651 139.57543607 283.38848861 138.93548584 284.92437744 C137.5563446 288.2357825 136.19322303 291.55058162 134.86230469 294.88183594 C134.42950195 295.95852539 133.99669922 297.03521484 133.55078125 298.14453125 C133.19032715 299.0576709 132.82987305 299.97081055 132.45849609 300.91162109 C131.33022239 303.20313464 130.31655014 304.58255831 128.33984375 306.18359375 C126.18359375 306.6171875 126.18359375 306.6171875 123.83984375 306.62109375 C122.6796875 306.65009766 122.6796875 306.65009766 121.49609375 306.6796875 C118.43210397 305.97474782 118.03357826 304.8542253 116.33984375 302.18359375 C114.93974246 299.22658701 113.71531418 296.20407588 112.48828125 293.171875 C112.11719238 292.26839325 111.74610352 291.3649115 111.36376953 290.43405151 C110.14221197 287.45685286 108.92863258 284.47646708 107.71484375 281.49609375 C106.85952844 279.40834701 106.003563 277.3208665 105.14697266 275.23364258 C103.39143546 270.95512865 101.63829427 266.67564501 99.88671875 262.39550781 C96.53445049 254.21093349 93.14664025 246.04120634 89.75402832 237.87329102 C88.35530919 234.5053896 86.9582447 231.13680272 85.56109619 227.76824951 C83.82107766 223.57319873 82.08042651 219.37841045 80.33984375 215.18359375 C77.54774151 208.45460772 74.75593141 201.72550068 71.96484375 194.99609375 C71.61726013 194.1580722 71.26967651 193.32005066 70.91156006 192.45663452 C64.80480364 177.73159419 58.71756001 162.9985339 52.63439941 148.26373291 C46.31474794 132.9567949 39.98275676 117.65502936 33.63525391 102.35961914 C32.9430306 100.69157036 32.25081055 99.02352023 31.55859375 97.35546875 C31.2162973 96.53066513 30.87400085 95.70586151 30.52133179 94.85606384 C28.31239132 89.53192694 26.1076459 84.20606993 23.90560913 78.8790741 C22.37710322 75.18163459 20.84742151 71.48468199 19.31768799 67.78775024 C18.59766887 66.04675764 17.87820213 64.30553645 17.15936279 62.5640564 C13.67666288 54.12729621 10.17193921 45.69986844 6.5625 37.31640625 C6.2877182 36.66844589 6.0129364 36.02048553 5.72982788 35.35289001 C1.21360145 24.96036567 -6.97014088 15.75797572 -17.41015625 11.02734375 C-38.82941656 2.99512113 -58.42959765 7.94282844 -72.72265625 25.93359375 Z " fill="#000100" transform="translate(132.66015625,10.81640625)"/>
<path d="M0 0 C3.1350663 1.62611062 5.46923969 3.57191262 8 6 C4.19855507 16.39464439 0.13353527 26.63968881 -4.20559692 36.82104492 C-5.94888613 40.91153013 -7.68215912 45.00624578 -9.4140625 49.1015625 C-9.78050369 49.96787292 -10.14694489 50.83418335 -10.52449036 51.72674561 C-13.39867125 58.53805294 -16.21942026 65.37048313 -19.0234375 72.2109375 C-19.44379776 73.23510773 -19.86415802 74.25927795 -20.29725647 75.31448364 C-21.95688166 79.35917992 -23.61628704 83.4039211 -25.26473999 87.45318604 C-41.12264492 126.40359634 -41.12264492 126.40359634 -59.23828125 134.94140625 C-69.33060962 138.80989421 -83.74982477 138.86994836 -93.75 134.875 C-98.58245505 132.47936533 -102.90575363 129.50419321 -107 126 C-105.38567264 112.8729696 -105.38567264 112.8729696 -101 108 C-96.74216691 104.78490154 -93.36489986 102.85467841 -88 102.875 C-87.319375 102.87242187 -86.63875 102.86984375 -85.9375 102.8671875 C-84 103 -84 103 -81 104 C-75.2009268 104.47228767 -69.85288214 104.7801609 -64.4375 102.5 C-59.18009563 97.10779039 -56.79199588 89.3072983 -53.98046875 82.421875 C-53.41680351 81.05218819 -53.41680351 81.05218819 -52.8417511 79.65483093 C-52.03758336 77.69993031 -51.23473657 75.74448587 -50.43310547 73.7885437 C-49.17459732 70.71852505 -47.91212833 67.65016407 -46.6484375 64.58227539 C-44.93053171 60.41152136 -43.2135517 56.240389 -41.49755859 52.06884766 C-38.162753 43.96396906 -34.82309689 35.86114817 -31.4647522 27.76599121 C-30.82582608 26.2239021 -30.18841476 24.68118443 -29.55258179 23.13781738 C-28.67412154 21.00570992 -27.79079758 18.87568152 -26.90625 16.74609375 C-26.41447266 15.55685303 -25.92269531 14.3676123 -25.41601562 13.14233398 C-20.28934867 1.76555288 -12.57034835 -2.29545492 0 0 Z " fill="#3D9754" transform="translate(333,357)"/>
<path d="M0 0 C3.17164294 2.66706339 3.8268496 3.96109762 4.5 8 C3.88466097 11.69203416 2.58383614 13.34016868 0 16 C-2.50045907 17.25022953 -3.68331158 16.91944282 -6.4375 16.5625 C-16.55157672 15.50015813 -24.30033498 14.9560222 -33 21 C-38.56897935 25.84054745 -41.34385031 31.44671883 -42.38671875 38.68359375 C-42.84499382 46.35206321 -40.65699052 52.03800521 -37.3125 58.7734375 C-35.92661062 62.18041556 -35.5988259 64.36371683 -36 68 C-37.79993774 70.69990662 -39.083773 72.5418865 -42 74 C-48.26112374 74.57973368 -48.26112374 74.57973368 -51.03125 72.40625 C-53.41068701 69.49804921 -54.68879569 66.65770047 -56.125 63.1875 C-56.62257813 62.00542969 -57.12015625 60.82335937 -57.6328125 59.60546875 C-62.00444028 48.07686179 -63.143408 35.51509254 -58 24 C-55.05434979 18.24413178 -51.89258849 13.29593136 -47 9 C-46.48824219 8.50886719 -45.97648437 8.01773437 -45.44921875 7.51171875 C-41.06424575 3.44931847 -36.57868286 1.08324243 -31 -1 C-29.906875 -1.4125 -28.81375 -1.825 -27.6875 -2.25 C-18.39640019 -4.13971521 -8.86467673 -3.4412565 0 0 Z " fill="#FAFCFB" transform="translate(113,21)"/>
<path d="M0 0 C2.29869296 1.63486993 3.72979511 3.36381159 4.48046875 6.1015625 C4.76692137 9.8827371 4.14647797 11.84436652 2.13671875 15.1015625 C-1.80649772 17.65305551 -4.60267275 17.63742894 -9.203125 17.87890625 C-15.04118689 18.46351327 -20.06730692 20.75968515 -24.17578125 24.9765625 C-30.09577994 32.74656079 -33.39284909 42.50456232 -37.0234375 51.484375 C-37.28674866 52.13234039 -37.55005981 52.78030579 -37.8213501 53.44790649 C-39.15984989 56.74179711 -40.48556166 60.03966185 -41.78759766 63.34814453 C-42.52695557 65.1828833 -42.52695557 65.1828833 -43.28125 67.0546875 C-43.93710083 68.71032715 -43.93710083 68.71032715 -44.60620117 70.39941406 C-46.12728497 73.3104759 -47.21187821 74.56588535 -50.05078125 76.1640625 C-54.40880733 76.7979572 -56.31992151 76.66166913 -59.98828125 74.1640625 C-62.61943267 70.33693316 -62.86811116 67.59883407 -62.05078125 63.1640625 C-60.95955658 59.39121126 -59.54704933 55.79299839 -58.05078125 52.1640625 C-57.65375 51.19082031 -57.25671875 50.21757813 -56.84765625 49.21484375 C-56.0189687 47.2086856 -55.18159575 45.20609495 -54.3359375 43.20703125 C-53.47699359 41.17324006 -52.63067134 39.13407341 -51.796875 37.08984375 C-45.68438776 22.12478879 -39.74248878 10.00598082 -24.39453125 2.94140625 C-16.86768598 -0.14681409 -8.00368261 -3.26245348 0 0 Z " fill="#F9FCFA" transform="translate(423.05078125,18.8359375)"/>
<path d="M0 0 C0.66 0.33 1.32 0.66 2 1 C-2.29 5.29 -6.58 9.58 -11 14 C-11 9.40845608 -8.09282279 7.18698368 -5 4 C-3.3719908 2.61973133 -1.71956118 1.26438322 0 0 Z " fill="#B4DABD" transform="translate(392,25)"/>
</svg>
